<?xml version="1.0" standalone="no"?>
<!DOCTYPE svg PUBLIC "-//W3C//DTD SVG 20010904//EN"
 "http://www.w3.org/TR/2001/REC-SVG-20010904/DTD/svg10.dtd">
<svg version="1.0" xmlns="http://www.w3.org/2000/svg"
 width="1280.000000pt" height="1280.000000pt" viewBox="0 0 1280.000000 1280.000000"
 preserveAspectRatio="xMidYMid meet">

<g transform="translate(0.000000,1280.000000) scale(0.100000,-0.100000)"
fill="#000000" stroke="none">
<path d="M7628 11073 c7 -3 16 -2 19 1 4 3 -2 6 -13 5 -11 0 -14 -3 -6 -6z"/>
<path d="M5885 10449 c-4 -6 -5 -12 -2 -15 2 -3 7 2 10 11 7 17 1 20 -8 4z"/>
<path d="M4869 10163 c-13 -16 -12 -17 4 -4 9 7 17 15 17 17 0 8 -8 3 -21 -13z"/>
<path d="M9910 9866 c0 -2 8 -10 18 -17 15 -13 16 -12 3 4 -13 16 -21 21 -21
13z"/>
<path d="M3399 9633 c-13 -16 -12 -17 4 -4 9 7 17 15 17 17 0 8 -8 3 -21 -13z"/>
<path d="M5716 9572 l-18 -39 63 -129 c174 -361 368 -642 614 -889 128 -129
216 -205 236 -205 14 1 49 23 49 32 0 3 -26 26 -59 51 -95 75 -277 263 -380
392 -168 211 -344 504 -441 735 -18 41 -35 79 -39 83 -4 4 -16 -10 -25 -31z"/>
<path d="M7531 9554 c-41 -34 -114 -145 -144 -221 -34 -83 -56 -185 -63 -291
-7 -89 2 -222 14 -222 4 1 17 9 29 19 21 18 23 29 26 167 4 119 9 163 27 219
23 72 76 181 109 225 l19 24 7 -39 c20 -116 67 -341 74 -348 4 -4 18 4 30 17
l24 25 -26 128 c-14 70 -29 157 -32 193 -13 132 -34 155 -94 104z"/>
<path d="M3279 9513 c-13 -16 -12 -17 4 -4 16 13 21 21 13 21 -2 0 -10 -8 -17
-17z"/>
<path d="M5654 9443 l-29 -58 0 -235 c1 -294 30 -543 80 -667 l16 -40 -51 -53
c-129 -133 -161 -288 -94 -466 13 -34 20 -41 37 -37 47 10 47 10 24 60 -18 39
-22 66 -22 148 0 86 4 106 24 145 33 63 75 113 126 149 l44 32 -19 32 c-27 45
-57 164 -75 291 -18 128 -38 604 -29 694 4 34 4 62 2 62 -3 0 -19 -26 -34 -57z"/>
<path d="M7881 9257 c-13 -21 -12 -21 5 -5 10 10 16 20 13 22 -3 3 -11 -5 -18
-17z"/>
<path d="M4406 9163 c-6 -14 -5 -15 5 -6 7 7 10 15 7 18 -3 3 -9 -2 -12 -12z"/>
<path d="M7682 8991 c-18 -25 -20 -34 -10 -67 18 -66 94 -264 137 -357 50
-108 35 -104 -70 18 -74 86 -142 187 -161 238 -11 31 -26 35 -35 10 -10 -25
61 -153 135 -242 63 -77 97 -110 186 -182 27 -22 71 -72 99 -112 63 -91 155
-197 170 -197 7 0 18 9 25 20 11 19 8 26 -33 73 -45 52 -53 67 -35 67 20 0 8
16 -34 44 -82 55 -205 292 -301 579 -23 70 -45 130 -47 132 -2 3 -14 -8 -26
-24z"/>
<path d="M5765 8988 c-19 -75 48 -328 138 -518 68 -145 216 -384 244 -394 33
-13 21 28 -30 101 -121 174 -222 366 -271 513 -28 87 -56 214 -56 262 0 18 -4
40 -9 47 -8 12 -11 9 -16 -11z"/>
<path d="M5171 8834 c0 -11 3 -14 6 -6 3 7 2 16 -1 19 -3 4 -6 -2 -5 -13z"/>
<path d="M7464 8768 l-29 -33 33 29 c30 28 37 36 29 36 -2 0 -16 -15 -33 -32z"/>
<path d="M7360 8650 c-25 -27 -48 -50 -53 -50 -4 0 -34 -26 -67 -57 l-60 -57
0 -77 c0 -97 34 -218 98 -349 26 -52 48 -98 50 -102 11 -24 -294 130 -431 218
-37 24 -71 44 -75 44 -4 0 -18 -9 -30 -18 l-24 -18 79 -51 c251 -162 574 -307
870 -391 l71 -20 28 29 c23 24 25 29 10 29 -10 0 -100 27 -200 61 l-182 60
-36 62 c-55 96 -93 174 -124 262 -24 68 -29 96 -29 181 0 95 2 103 28 137 16
21 54 50 88 67 52 27 59 34 59 60 0 42 -18 37 -70 -20z"/>
<path d="M9915 8448 c-17 -16 -29 -41 -37 -80 -11 -51 -9 -70 11 -159 25 -113
75 -251 96 -269 36 -30 81 156 73 302 -5 91 -41 185 -82 213 -27 19 -30 19
-61 -7z"/>
<path d="M5796 8311 c-46 -51 -74 -212 -56 -320 11 -69 12 -70 36 -59 19 9 22
16 16 37 -19 68 3 271 29 271 5 0 27 -26 51 -57 23 -32 65 -81 93 -110 28 -29
49 -56 46 -60 -3 -3 7 2 22 12 l28 18 -58 61 c-32 33 -83 96 -113 138 -30 43
-60 80 -67 82 -6 3 -18 -3 -27 -13z"/>
<path d="M10272 8173 c-55 -30 -129 -101 -190 -181 -32 -42 -63 -85 -68 -94
-12 -23 -21 -15 -76 67 -50 76 -68 94 -138 141 -63 43 -95 49 -121 23 -25 -25
-20 -55 18 -114 64 -97 187 -188 255 -188 l39 0 -7 -86 c-3 -47 -9 -113 -13
-146 l-7 -60 -21 41 c-30 56 -118 151 -172 186 -87 55 -150 26 -117 -53 30
-73 223 -219 289 -219 17 0 18 -5 12 -52 -16 -121 -87 -457 -102 -481 -3 -5
-16 2 -30 15 -51 48 -115 160 -158 277 -73 199 -131 294 -223 366 -99 78 -206
101 -327 70 -54 -14 -194 -78 -269 -123 -21 -12 -30 -14 -33 -5 -2 7 -31 45
-63 86 -69 88 -216 221 -348 315 -51 37 -121 90 -155 119 -56 47 -63 51 -74
35 -7 -9 -16 -21 -21 -27 -9 -10 -10 -9 155 -126 150 -106 225 -167 316 -257
104 -103 164 -180 151 -197 -5 -7 -34 -44 -65 -81 -30 -38 -77 -105 -104 -149
-66 -110 -97 -156 -102 -152 -2 2 3 33 12 68 18 80 19 149 1 217 -35 129 -113
207 -261 257 -55 18 -309 85 -324 85 -11 0 -51 -40 -51 -50 0 -3 33 -14 74
-23 185 -43 333 -89 377 -118 93 -59 129 -131 129 -256 0 -92 -21 -169 -71
-262 -15 -29 -26 -57 -24 -62 7 -11 73 9 114 36 54 34 82 69 161 195 78 124
129 190 198 254 146 136 350 197 484 146 111 -42 204 -164 273 -360 42 -116
76 -189 111 -236 13 -17 24 -35 24 -40 0 -5 -26 -10 -58 -12 -76 -3 -157 -27
-207 -62 -118 -82 -146 -224 -109 -553 25 -212 23 -384 -3 -477 -64 -223 -204
-459 -382 -643 -81 -84 -176 -164 -226 -190 -63 -33 -201 -154 -262 -231 -148
-185 -223 -407 -223 -655 l0 -106 -36 50 c-19 28 -51 78 -71 112 -19 35 -38
65 -43 68 -4 3 -22 -16 -38 -42 -48 -78 -87 -113 -126 -113 -56 0 -86 52 -110
190 -8 45 -16 84 -20 87 -3 3 -28 -13 -57 -36 -54 -43 -114 -66 -145 -55 -25
9 -84 65 -84 79 0 6 -6 20 -14 30 -13 17 -14 17 -47 -8 -117 -89 -225 -87
-294 4 -27 36 -32 39 -60 32 -16 -4 -59 -8 -95 -8 -52 0 -72 5 -98 24 -37 26
-67 79 -77 136 -4 22 -9 43 -11 46 -2 3 -34 -5 -71 -17 -86 -30 -142 -31 -176
-3 -34 26 -51 88 -42 157 l7 53 -49 -8 c-26 -4 -85 -8 -130 -8 -72 0 -84 3
-107 24 -45 42 -35 51 57 51 310 1 771 133 1072 307 216 125 465 316 442 339
-3 3 -30 1 -58 -6 -88 -21 -181 -17 -236 12 -87 44 -131 156 -120 305 l5 71
-51 4 c-41 3 -58 0 -79 -17 -35 -26 -30 -39 14 -43 l35 -3 7 -80 c16 -188 92
-293 236 -322 l64 -13 -64 -46 c-173 -123 -405 -244 -597 -312 -223 -78 -426
-116 -690 -132 l-123 -7 0 -49 c0 -64 19 -98 72 -128 37 -22 55 -25 136 -25
l92 1 0 -40 c0 -47 34 -121 64 -141 41 -27 107 -35 174 -21 l63 13 18 -41 c25
-57 66 -103 115 -128 33 -18 59 -22 128 -23 85 0 88 -1 119 -33 39 -40 121
-66 176 -56 20 4 61 18 91 31 l53 23 33 -34 c18 -20 45 -40 60 -46 43 -16 108
-12 149 10 45 24 53 21 62 -23 12 -52 57 -137 88 -163 54 -45 135 -29 195 40
17 20 34 36 37 36 3 0 18 -19 33 -43 52 -82 86 -119 139 -153 63 -40 77 -42
70 -11 -19 77 -28 192 -22 262 29 346 166 584 446 770 129 86 317 271 411 405
86 121 169 282 213 408 55 160 61 307 25 572 -6 46 -12 143 -13 215 -1 127 0
133 28 190 49 98 104 124 283 132 107 5 112 5 112 -14 0 -26 -48 -158 -100
-275 -52 -118 -38 -104 33 33 74 144 83 156 148 204 74 54 181 90 244 81 145
-22 199 -243 72 -291 l-42 -15 39 4 c48 6 73 28 87 77 23 75 -17 180 -86 225
-88 57 -237 20 -344 -88 -23 -22 -41 -38 -41 -36 0 3 12 38 26 79 29 80 64
213 64 242 0 13 9 17 43 17 118 2 357 168 357 250 0 50 -35 59 -105 26 -68
-31 -117 -67 -209 -155 -63 -61 -68 -64 -61 -36 4 17 13 82 21 145 7 63 14
116 14 118 0 1 13 2 30 2 107 0 333 154 355 243 10 37 -28 60 -76 47 -54 -15
-148 -80 -235 -162 l-77 -73 6 40 c4 22 7 86 7 143 l0 102 27 0 c36 0 137 59
206 120 60 55 105 113 127 168 11 29 11 35 -5 52 -22 25 -41 25 -83 3z"/>
<path d="M2907 8139 c7 -7 15 -10 18 -7 3 3 -2 9 -12 12 -14 6 -15 5 -6 -5z"/>
<path d="M5863 7765 c-22 -11 -22 -12 18 -61 22 -27 60 -68 84 -91 43 -40 212
-173 221 -173 29 0 209 -33 240 -44 76 -26 217 -106 189 -106 -4 0 -40 12 -79
26 -39 14 -101 28 -138 31 -57 5 -70 3 -96 -16 -40 -28 -56 -78 -49 -160 12
-168 116 -314 252 -357 52 -17 56 -17 95 1 l41 18 -73 19 c-155 39 -250 143
-273 300 -15 97 17 148 93 148 59 0 226 -58 294 -101 50 -32 92 -39 111 -20 6
6 -21 41 -71 90 -120 118 -257 181 -455 206 -77 10 -257 143 -346 255 -32 41
-38 44 -58 35z"/>
<path d="M5710 7717 c0 -15 119 -141 202 -213 l56 -49 -11 -63 c-12 -68 -1
-173 27 -267 33 -110 156 -265 267 -337 39 -25 49 -37 49 -59 0 -50 8 -58 41
-45 23 8 29 15 25 31 -3 11 -6 34 -6 50 0 25 -9 36 -58 67 -147 97 -245 234
-273 383 -11 57 -7 207 6 251 5 16 -5 29 -52 66 -32 25 -92 80 -133 122 -63
64 -80 76 -107 76 -20 0 -33 -5 -33 -13z"/>
<path d="M7525 7319 c-4 -6 -5 -12 -2 -15 2 -3 7 2 10 11 7 17 1 20 -8 4z"/>
<path d="M6900 6789 c-29 -16 -31 -19 -13 -19 59 0 243 -63 338 -116 59 -33
158 -104 153 -110 -2 -2 -38 10 -79 27 -102 42 -275 85 -394 98 -55 7 -114 13
-130 15 -19 3 -44 -4 -67 -18 l-37 -22 127 -12 c299 -29 566 -112 691 -216 52
-43 81 -47 81 -11 0 18 -18 44 -62 86 -124 121 -264 216 -396 269 -122 48
-166 54 -212 29z"/>
<path d="M7967 6763 c-4 -3 -7 -11 -7 -17 0 -6 5 -5 12 2 6 6 9 14 7 17 -3 3
-9 2 -12 -2z"/>
<path d="M6562 6584 l-22 -15 35 -69 c69 -129 164 -222 290 -280 112 -53 171
-65 310 -65 124 0 232 22 256 51 14 17 1 18 -35 4 -14 -5 -75 -14 -135 -20
-141 -14 -254 4 -369 60 -126 60 -246 187 -292 306 -15 42 -17 43 -38 28z"/>
<path d="M7805 6519 c-4 -6 -5 -12 -2 -15 2 -3 7 2 10 11 7 17 1 20 -8 4z"/>
<path d="M6398 6502 l-28 -13 26 -52 c70 -139 202 -289 333 -376 72 -49 198
-110 284 -137 40 -12 56 -22 52 -32 -2 -7 15 4 39 25 l43 38 -46 12 c-174 44
-336 130 -452 240 -78 74 -124 133 -183 236 -41 72 -41 72 -68 59z"/>
<path d="M3978 6293 c7 -3 16 -2 19 1 4 3 -2 6 -13 5 -11 0 -14 -3 -6 -6z"/>
<path d="M7602 6243 c-19 -7 -4 -23 24 -23 27 0 32 15 8 24 -9 3 -16 6 -17 5
-1 0 -8 -3 -15 -6z"/>
<path d="M7805 5354 c-249 -200 -499 -353 -650 -398 -88 -26 -105 -34 -105
-51 0 -36 130 -6 386 90 81 30 151 54 155 53 4 -2 -19 -23 -51 -48 -101 -78
-73 -101 51 -41 45 22 84 39 86 37 4 -4 -138 -180 -149 -184 -5 -2 -8 -13 -8
-24 0 -17 4 -19 28 -14 34 9 190 88 260 133 30 19 56 32 58 30 6 -5 -175 -207
-192 -214 -20 -8 -17 -33 4 -33 10 0 81 37 157 83 77 46 147 86 155 89 8 4 49
29 90 57 41 27 75 49 76 48 2 -1 -6 -38 -17 -82 -11 -44 -21 -86 -22 -94 -6
-38 30 -11 133 99 62 66 116 120 120 120 5 0 -14 -48 -42 -106 -49 -105 -70
-174 -51 -174 8 0 97 89 312 313 36 37 60 67 53 67 -7 0 -82 -68 -167 -151
-85 -84 -155 -149 -155 -145 0 4 23 52 51 107 60 117 74 159 54 159 -20 0
-100 -67 -184 -154 -41 -42 -75 -75 -77 -73 -2 2 4 28 14 58 26 75 35 129 23
129 -6 0 -48 -26 -93 -58 -87 -61 -277 -176 -283 -170 -2 2 44 58 101 126 98
116 120 152 92 152 -6 0 -34 -17 -62 -39 -86 -66 -283 -181 -310 -181 -3 0 21
34 54 75 85 108 122 164 115 175 -10 16 -20 12 -76 -30 -29 -22 -54 -38 -57
-36 -2 2 17 25 42 51 25 26 46 51 46 55 0 24 -31 15 -162 -49 -140 -67 -178
-84 -178 -77 0 2 35 24 78 48 112 66 229 155 294 227 50 54 85 101 76 101 -2
0 -35 -25 -73 -56z"/>
<path d="M11171 4814 c0 -11 3 -14 6 -6 3 7 2 16 -1 19 -3 4 -6 -2 -5 -13z"/>
<path d="M11117 4613 c-4 -3 -7 -11 -7 -17 0 -6 5 -5 12 2 6 6 9 14 7 17 -3 3
-9 2 -12 -2z"/>
<path d="M3925 4440 c3 -5 8 -10 11 -10 2 0 4 5 4 10 0 6 -5 10 -11 10 -5 0
-7 -4 -4 -10z"/>
<path d="M4046 4287 c3 -10 9 -15 12 -12 3 3 0 11 -7 18 -10 9 -11 8 -5 -6z"/>
<path d="M4170 4034 c0 -6 7 -19 16 -30 14 -18 14 -18 3 6 -14 31 -19 36 -19
24z"/>
<path d="M2330 3955 c0 -5 5 -17 10 -25 5 -8 10 -10 10 -5 0 6 -5 17 -10 25
-5 8 -10 11 -10 5z"/>
<path d="M6180 3323 c0 -6 8 -17 18 -24 16 -13 16 -13 2 6 -8 11 -16 22 -17
24 -2 2 -3 0 -3 -6z"/>
<path d="M1797 3075 c-31 -47 -57 -89 -57 -93 0 -4 49 -6 109 -4 l109 3 36
-59 c20 -33 36 -62 36 -66 0 -3 -87 -6 -194 -6 l-193 0 -132 -194 c-72 -107
-131 -197 -131 -200 0 -3 35 -6 78 -6 l77 0 30 48 c17 26 59 89 94 140 l64 92
195 -2 195 -3 83 -135 82 -135 82 -3 83 -3 -15 23 c-8 13 -68 111 -133 218
-65 107 -155 256 -200 330 l-83 135 -79 3 -79 3 -57 -86z"/>
<path d="M2587 3153 c-11 -11 -8 -534 3 -575 14 -48 55 -97 97 -114 26 -11
127 -14 498 -14 l465 0 0 80 0 80 -415 0 c-437 0 -462 2 -479 45 -3 9 -6 127
-6 261 l0 244 -78 0 c-43 0 -82 -3 -85 -7z"/>
<path d="M3945 3151 c-46 -11 -79 -37 -103 -80 -21 -37 -22 -50 -22 -273 0
-227 1 -236 23 -268 12 -18 35 -43 50 -54 28 -21 39 -21 508 -24 l479 -3 0 86
0 85 -429 0 -430 0 -20 26 c-19 24 -21 40 -21 159 l0 133 31 26 31 26 419 0
419 0 0 85 0 85 -452 -1 c-249 -1 -467 -4 -483 -8z"/>
<path d="M5160 3149 c-19 -6 -48 -23 -63 -37 -55 -52 -57 -62 -57 -314 0 -233
0 -233 25 -271 14 -20 43 -46 65 -57 37 -19 59 -20 442 -20 400 0 403 1 443
23 22 13 49 40 62 62 22 38 23 50 23 270 0 258 -2 265 -76 321 l-37 29 -396 2
c-244 1 -409 -2 -431 -8z m774 -184 c26 -24 26 -26 26 -163 0 -136 0 -139 -26
-163 l-26 -24 -338 0 -338 0 -26 24 c-26 24 -26 27 -26 163 0 134 1 140 25
163 l24 25 339 0 339 0 27 -25z"/>
<path d="M6250 2805 l0 -355 75 0 75 0 0 355 0 355 -75 0 -75 0 0 -355z"/>
<path d="M6540 3067 l0 -94 72 -2 72 -2 205 -150 c113 -83 215 -157 226 -165
11 -8 79 -57 150 -109 l130 -95 103 0 102 0 0 355 0 355 -80 0 -80 0 0 -276
c0 -152 -4 -274 -8 -272 -5 2 -129 91 -276 198 -148 107 -312 226 -365 264
-53 38 -97 73 -99 78 -2 4 -37 8 -78 8 l-74 0 0 -93z"/>
<path d="M7881 3147 c-53 -14 -99 -66 -108 -120 l-6 -37 527 0 526 0 0 85 0
85 -447 -1 c-308 0 -462 -4 -492 -12z"/>
<path d="M9391 3075 c-29 -46 -52 -87 -50 -91 2 -4 36 -6 74 -5 61 2 73 5 90
26 l20 24 47 -77 c26 -42 49 -81 50 -87 2 -6 -69 -12 -191 -15 l-194 -5 -133
-195 c-74 -107 -134 -196 -134 -197 0 -2 36 -3 79 -3 l79 0 94 138 93 137 196
3 196 2 84 -140 84 -140 78 0 c42 0 77 2 77 5 0 3 -26 49 -59 103 -125 206
-338 558 -352 580 -12 20 -21 22 -94 21 l-80 0 -54 -84z"/>
<path d="M10287 3145 c-51 -18 -83 -49 -102 -100 -14 -35 -16 -79 -13 -261 3
-210 4 -221 27 -257 12 -21 40 -46 62 -57 36 -19 60 -20 508 -20 l469 0 -1 83
-2 82 -420 2 c-293 2 -427 6 -442 14 -33 17 -43 60 -43 178 0 88 3 112 20 139
11 17 21 33 22 34 2 1 197 5 433 8 l430 5 0 80 0 80 -455 2 c-365 2 -463 0
-493 -12z"/>
<path d="M7774 2838 c3 -18 14 -44 25 -58 39 -54 46 -55 456 -60 l380 -5 3
-47 3 -48 -433 -2 -433 -3 -3 -82 -3 -83 468 0 c437 0 471 1 503 19 63 34 75
60 78 179 3 124 -10 163 -68 197 -34 19 -53 20 -509 23 l-474 3 7 -33z"/>
<path d="M6540 2650 l0 -200 75 0 75 0 0 200 0 200 -75 0 -75 0 0 -200z"/>
<path d="M1460 1838 c-24 -57 -56 -133 -71 -170 l-28 -68 22 0 c18 0 26 10 38
43 l16 42 99 0 99 0 15 -42 c11 -34 19 -43 37 -43 26 0 31 -18 -52 180 -31 74
-59 141 -62 148 -3 6 -20 12 -38 12 -32 0 -34 -2 -75 -102z m122 -28 l36 -90
-79 0 c-43 0 -79 3 -79 7 0 20 66 173 75 173 6 0 27 -41 47 -90z"/>
<path d="M1770 1770 l0 -170 125 0 c104 0 125 2 125 15 0 12 -18 15 -105 15
l-105 0 0 155 c0 148 -1 155 -20 155 -19 0 -20 -7 -20 -170z"/>
<path d="M2090 1770 c0 -163 1 -170 20 -170 18 0 20 7 20 65 l0 65 93 0 c81 0
96 3 112 20 25 28 31 109 12 147 -19 36 -45 43 -168 43 l-89 0 0 -170z m198
134 c20 -6 22 -12 22 -69 0 -74 -1 -75 -106 -75 l-74 0 0 75 0 75 68 0 c37 0
77 -3 90 -6z"/>
<path d="M2430 1770 c0 -163 1 -170 20 -170 18 0 20 7 20 64 0 99 -4 96 116
96 l104 0 0 -80 c0 -73 2 -80 20 -80 19 0 20 7 20 170 0 163 -1 170 -20 170
-18 0 -20 -7 -20 -75 l0 -75 -104 0 c-119 0 -116 -2 -116 91 0 52 -2 59 -20
59 -19 0 -20 -7 -20 -170z"/>
<path d="M2895 1868 c-15 -40 -45 -114 -66 -164 -22 -50 -39 -94 -39 -98 0 -3
8 -6 18 -6 11 0 26 16 40 45 l22 45 90 0 90 0 22 -45 c14 -29 29 -45 40 -45
10 0 18 3 18 6 0 4 -17 48 -39 98 -21 50 -51 124 -67 163 -28 71 -30 73 -65
73 -35 0 -36 -1 -64 -72z m111 -58 c19 -46 34 -85 34 -87 0 -2 -36 -3 -80 -3
-44 0 -80 1 -80 3 0 2 12 32 26 68 15 35 30 74 35 87 5 13 14 22 20 20 6 -2
26 -42 45 -88z"/>
<path d="M3383 1916 c-26 -22 -27 -29 -31 -124 -7 -172 13 -197 160 -197 86 0
91 1 114 28 30 35 33 87 5 87 -14 0 -21 -10 -25 -35 -6 -30 -12 -36 -49 -46
-45 -12 -122 -6 -143 12 -10 8 -14 43 -14 130 0 141 1 141 113 137 70 -3 72
-4 87 -35 8 -18 23 -33 33 -33 26 0 22 46 -8 75 -22 23 -32 25 -119 25 -86 0
-98 -2 -123 -24z"/>
<path d="M3760 1928 c-42 -23 -51 -53 -48 -170 3 -101 5 -109 29 -134 23 -22
38 -27 97 -32 90 -6 138 3 168 33 23 23 24 31 24 143 0 163 -2 166 -142 170
-70 2 -111 -2 -128 -10z m212 -35 c15 -14 18 -32 18 -123 0 -138 -6 -145 -121
-145 -110 1 -114 5 -114 146 0 136 2 139 119 139 60 0 84 -4 98 -17z"/>
<path d="M4120 1771 c0 -164 1 -171 20 -171 18 0 20 8 22 149 l3 148 100 -148
c94 -141 102 -149 133 -149 l32 0 0 170 c0 163 -1 170 -20 170 -18 0 -20 -8
-22 -151 l-3 -151 -101 148 c-91 135 -103 149 -132 152 l-32 3 0 -170z"/>
<path d="M4477 1934 c-15 -15 8 -24 59 -24 l54 0 0 -155 0 -155 25 0 25 0 0
155 0 155 60 0 c47 0 60 3 60 15 0 13 -22 15 -138 15 -76 0 -142 -3 -145 -6z"/>
<path d="M4808 1770 c3 -161 4 -170 22 -170 18 0 20 7 20 66 l0 66 89 -4 c49
-1 93 -6 97 -11 4 -4 9 -32 12 -62 4 -46 8 -55 23 -55 16 0 19 8 19 60 0 46
-4 61 -17 69 -17 9 -17 10 0 28 12 14 17 37 17 81 0 54 -3 63 -26 81 -24 19
-40 21 -143 21 l-116 0 3 -170z m232 120 c16 -24 12 -97 -6 -114 -12 -12 -36
-16 -100 -16 l-84 0 0 76 0 76 90 -4 c67 -2 93 -7 100 -18z"/>
<path d="M5204 1928 c-35 -16 -44 -52 -44 -169 0 -102 2 -112 24 -134 28 -28
93 -40 175 -32 105 9 121 33 121 177 0 109 -10 142 -47 159 -30 14 -200 13
-229 -1z m212 -32 c16 -12 19 -29 22 -118 3 -91 1 -107 -16 -128 -16 -20 -28
-23 -88 -24 -88 -1 -120 8 -128 36 -3 13 -6 65 -6 116 0 122 9 132 118 132 52
0 85 -5 98 -14z"/>
<path d="M5560 1771 l0 -171 130 0 c109 0 130 2 130 15 0 12 -19 15 -107 15
l-108 0 0 152 c0 151 0 153 -22 156 l-23 3 0 -170z"/>
<path d="M6050 1770 l0 -170 135 0 c113 0 135 2 135 15 0 12 -19 15 -115 15
l-115 0 0 65 0 65 110 0 c91 0 110 3 110 15 0 12 -19 15 -110 15 l-110 0 0 60
0 60 115 0 c96 0 115 3 115 15 0 13 -22 15 -135 15 l-135 0 0 -170z"/>
<path d="M6570 1770 c0 -163 1 -170 20 -170 19 0 20 7 20 170 0 163 -1 170
-20 170 -19 0 -20 -7 -20 -170z"/>
<path d="M6700 1770 c0 -163 1 -170 20 -170 18 0 20 8 22 151 l3 150 101 -148
c91 -134 103 -148 132 -151 l32 -3 0 170 c0 164 -1 171 -20 171 -18 0 -20 -8
-22 -149 l-3 -149 -100 149 c-95 141 -102 149 -132 149 l-33 0 0 -170z"/>
<path d="M7141 1926 c-35 -19 -40 -37 -40 -161 -1 -127 8 -148 67 -165 48 -13
137 -13 184 1 48 13 70 52 66 117 l-3 47 -70 0 c-56 0 -70 -3 -70 -15 0 -11
14 -16 53 -18 50 -3 52 -4 52 -31 0 -16 -9 -39 -19 -52 -17 -22 -27 -24 -99
-24 -116 0 -122 7 -122 146 0 134 5 139 122 139 65 0 81 -3 98 -20 11 -11 20
-27 20 -35 0 -8 9 -15 20 -15 38 0 23 63 -21 85 -37 20 -204 20 -238 1z"/>
<path d="M7500 1770 l0 -170 130 0 c109 0 130 2 130 15 0 12 -19 15 -110 15
l-110 0 0 65 0 65 110 0 c91 0 110 3 110 15 0 12 -19 15 -110 15 l-110 0 0 60
0 60 110 0 c91 0 110 3 110 15 0 13 -21 15 -130 15 l-130 0 0 -170z"/>
<path d="M7840 1770 c0 -163 1 -170 20 -170 18 0 20 8 22 151 l3 152 100 -152
c95 -143 102 -151 133 -151 l32 0 0 170 c0 163 -1 170 -20 170 -18 0 -20 -8
-22 -151 l-3 -152 -100 151 c-94 143 -102 151 -132 152 l-33 0 0 -170z"/>
<path d="M8240 1770 c0 -163 1 -170 20 -170 19 0 20 7 20 170 0 163 -1 170
-20 170 -19 0 -20 -7 -20 -170z"/>
<path d="M8380 1770 l0 -170 130 0 c109 0 130 2 130 15 0 12 -19 15 -110 15
l-110 0 0 65 0 65 110 0 c91 0 110 3 110 15 0 12 -19 15 -110 15 l-110 0 0 60
0 60 110 0 c91 0 110 3 110 15 0 13 -21 15 -130 15 l-130 0 0 -170z"/>
<path d="M8720 1770 c0 -163 1 -170 20 -170 18 0 20 7 20 66 l0 66 90 -4 c104
-4 110 -8 110 -80 0 -41 3 -48 20 -48 18 0 20 7 20 57 0 37 -5 62 -15 73 -14
15 -14 18 0 30 16 13 22 124 7 147 -15 23 -65 33 -168 33 l-104 0 0 -170z
m230 120 c16 -24 12 -97 -6 -114 -12 -12 -36 -16 -100 -16 l-84 0 0 76 0 76
90 -4 c67 -2 93 -7 100 -18z"/>
<path d="M9086 1924 c-3 -9 -6 -85 -6 -170 l0 -154 25 0 25 0 0 170 c0 160 -1
170 -19 170 -10 0 -22 -7 -25 -16z"/>
<path d="M9287 1878 c-14 -35 -44 -107 -66 -161 -47 -112 -48 -117 -23 -117
11 0 24 16 35 45 l19 45 94 0 95 0 19 -45 c14 -33 25 -45 41 -45 13 0 19 5 16
13 -11 25 -119 283 -128 305 -6 17 -17 22 -43 22 -32 0 -35 -3 -59 -62z m105
-68 l36 -90 -79 0 c-43 0 -79 3 -79 7 0 20 66 173 75 173 6 0 27 -40 47 -90z"/>
<path d="M9780 1920 c-14 -14 -20 -33 -20 -68 0 -75 11 -83 126 -95 54 -5 105
-14 112 -20 13 -10 16 -75 4 -94 -11 -17 -108 -26 -157 -16 -35 8 -41 13 -49
46 -7 26 -15 37 -28 37 -26 0 -24 -52 5 -86 20 -23 33 -27 94 -31 137 -10 183
13 183 93 0 25 -4 54 -10 64 -13 24 -61 40 -129 41 -91 2 -106 9 -109 53 -5
57 9 66 97 66 84 0 95 -4 105 -37 8 -24 46 -33 46 -10 -1 62 -31 77 -155 77
-82 0 -98 -3 -115 -20z"/>
<path d="M10387 1878 c-14 -35 -46 -111 -71 -170 -44 -105 -45 -108 -23 -108
17 0 26 9 36 38 8 20 19 40 25 44 6 4 51 8 99 8 l88 0 19 -45 c14 -32 25 -45
39 -45 17 0 19 4 12 23 -5 12 -36 87 -69 167 -60 145 -60 145 -95 148 -34 3
-35 2 -60 -60z m105 -68 l36 -90 -79 0 c-43 0 -79 4 -79 9 0 5 9 31 21 58 11
26 27 63 34 81 8 17 18 32 22 32 5 0 25 -40 45 -90z"/>
<path d="M10884 1930 c-36 -14 -46 -59 -42 -179 4 -142 12 -152 125 -159 119
-7 173 24 173 99 0 14 -7 19 -25 19 -21 0 -25 -5 -25 -29 0 -16 -7 -34 -15
-41 -22 -18 -94 -24 -142 -11 -37 10 -43 16 -49 46 -10 56 -1 200 15 218 10
13 31 17 90 17 82 0 101 -9 101 -47 0 -18 6 -23 25 -23 14 0 25 4 25 9 0 27
-25 70 -46 80 -29 13 -179 14 -210 1z"/>
<path d="M10120 1625 c0 -18 5 -25 20 -25 15 0 20 7 20 25 0 18 -5 25 -20 25
-15 0 -20 -7 -20 -25z"/>
<path d="M10660 1625 c0 -18 5 -25 20 -25 15 0 20 7 20 25 0 18 -5 25 -20 25
-15 0 -20 -7 -20 -25z"/>
<path d="M11200 1625 c0 -18 5 -25 20 -25 15 0 20 7 20 25 0 18 -5 25 -20 25
-15 0 -20 -7 -20 -25z"/>
</g>
</svg>
